<svg width="24" height="24" viewBox="0 0 24 24" fill="none" xmlns="http://www.w3.org/2000/svg">
<g clip-path="url(#clip0_2_9599)">
<path d="M11.25 0.28584C11.6765 -0.0985352 12.3234 -0.0985352 12.75 0.28584L23.625 10.0358C24.089 10.4483 24.1265 11.1608 23.7093 11.6249C23.2922 12.089 22.5843 12.1265 22.1203 11.7093L21.7453 11.3718V20.9952C21.7453 22.6499 20.4 23.9952 18.7453 23.9952H5.24528C3.59059 23.9952 2.24528 22.6499 2.24528 20.9952V11.3718L1.87028 11.7093C1.40622 12.1218 0.698403 12.0843 0.281216 11.6249C-0.135972 11.1655 -0.0937844 10.453 0.365591 10.0358L11.25 0.28584ZM12 2.63428L4.49997 9.36084V20.9999C4.49997 21.4124 4.83747 21.7499 5.24997 21.7499H7.49997V16.8749C7.49997 15.0093 9.00934 13.4999 10.875 13.4999H13.125C14.9906 13.4999 16.5 15.0093 16.5 16.8749V21.7499H18.75C19.1625 21.7499 19.5 21.4124 19.5 20.9999V9.36084L12 2.63896V2.63428ZM9.74997 21.7499H14.25V16.8749C14.25 16.2515 13.7484 15.7499 13.125 15.7499H10.875C10.2515 15.7499 9.74997 16.2515 9.74997 16.8749V21.7499Z" fill="black"/>
</g>
<defs>
<clipPath id="clip0_2_9599">
<rect width="24" height="24" fill="white"/>
</clipPath>
</defs>
</svg>
