<svg width="144" height="72" viewBox="0 0 144 72" fill="none" xmlns="http://www.w3.org/2000/svg">
<path d="M60.0155 21.459C59.2733 20.9967 58.3293 20.7656 57.1835 20.7656C56.7212 20.7656 56.2915 20.8307 55.8944 20.9609C55.4973 21.0846 55.1164 21.2995 54.7518 21.6055C54.3937 21.9115 54.0878 22.2988 53.8338 22.7676C53.5799 23.2363 53.3781 23.832 53.2284 24.5547C53.0786 25.2773 53.0038 26.0977 53.0038 27.0156C53.0038 27.9336 53.0851 28.7507 53.2479 29.4668C53.4107 30.1829 53.6255 30.7689 53.8924 31.2246C54.1659 31.6803 54.4914 32.0547 54.869 32.3477C55.2531 32.6406 55.647 32.849 56.0506 32.9727C56.4543 33.0898 56.8905 33.1484 57.3592 33.1484C58.7329 33.1484 59.8039 32.8848 60.5721 32.3574C61.3469 31.8236 61.9654 31.0033 62.4276 29.8965L65.0253 30.7949C64.7909 31.4264 64.4914 32.0221 64.1268 32.582C63.7687 33.1354 63.3358 33.6465 62.828 34.1152C62.3202 34.584 61.7538 34.9876 61.1288 35.3262C60.5103 35.6582 59.8104 35.9186 59.0292 36.1074C58.2479 36.2962 57.4243 36.3906 56.5585 36.3906C55.2759 36.3906 54.0617 36.166 52.9159 35.7168C51.7766 35.2676 50.7837 34.6426 49.9374 33.8418C49.0975 33.0345 48.4302 32.0417 47.9354 30.8633C47.4471 29.6849 47.203 28.4023 47.203 27.0156C47.203 25.9023 47.3592 24.8542 47.6717 23.8711C47.9842 22.888 48.4237 22.0189 48.9901 21.2637C49.563 20.5085 50.2336 19.8574 51.0018 19.3105C51.77 18.7637 52.6229 18.3503 53.5604 18.0703C54.4979 17.7839 55.481 17.6406 56.5096 17.6406C57.3234 17.6406 58.0884 17.7188 58.8046 17.875C59.5207 18.0247 60.1587 18.2331 60.7186 18.5C61.285 18.7604 61.8124 19.0859 62.3006 19.4766C62.7889 19.8672 63.2154 20.2839 63.5799 20.7266C63.951 21.1628 64.2961 21.6543 64.6151 22.2012C64.9471 22.7155 65.1131 23.2786 65.1131 23.8906C65.1131 24.7565 64.8072 25.4954 64.1952 26.1074C63.5897 26.7129 62.854 27.0156 61.9881 27.0156C61.1223 27.0156 60.3833 26.7129 59.7713 26.1074C59.1659 25.4954 58.8631 24.7565 58.8631 23.8906C58.8631 23.4089 58.9641 22.9564 59.1659 22.5332C59.3742 22.11 59.6574 21.752 60.0155 21.459ZM72.7987 18.373C73.9445 17.9238 75.1587 17.6992 76.4413 17.6992C77.7238 17.6992 78.9348 17.9238 80.0741 18.373C81.2199 18.8223 82.216 19.4505 83.0624 20.2578C83.9087 21.0586 84.576 22.0482 85.0643 23.2266C85.5591 24.4049 85.8065 25.6875 85.8065 27.0742C85.8065 28.4609 85.5591 29.7435 85.0643 30.9219C84.576 32.1003 83.9087 33.0931 83.0624 33.9004C82.216 34.7012 81.2199 35.3262 80.0741 35.7754C78.9348 36.2246 77.7238 36.4492 76.4413 36.4492C75.1587 36.4492 73.9445 36.2246 72.7987 35.7754C71.6594 35.3262 70.6665 34.7012 69.8202 33.9004C68.9803 33.0931 68.313 32.1003 67.8182 30.9219C67.3299 29.7435 67.0858 28.4609 67.0858 27.0742C67.0858 25.6875 67.3299 24.4049 67.8182 23.2266C68.313 22.0482 68.9803 21.0586 69.8202 20.2578C70.6665 19.4505 71.6594 18.8223 72.7987 18.373ZM76.4413 20.8242C75.9855 20.8242 75.5786 20.8893 75.2206 21.0195C74.8625 21.1497 74.5337 21.3646 74.2342 21.6641C73.9348 21.9635 73.6874 22.3509 73.4921 22.8262C73.3032 23.3014 73.1535 23.8939 73.0428 24.6035C72.9387 25.3132 72.8866 26.1367 72.8866 27.0742C72.8866 28.0117 72.9387 28.8353 73.0428 29.5449C73.1535 30.2546 73.3032 30.847 73.4921 31.3223C73.6874 31.7975 73.9348 32.1849 74.2342 32.4844C74.5337 32.7839 74.8625 32.9987 75.2206 33.1289C75.5786 33.2591 75.9855 33.3242 76.4413 33.3242C77.0142 33.3242 77.5122 33.2168 77.9354 33.002C78.3586 32.7806 78.7264 32.429 79.0389 31.9473C79.3579 31.4655 79.5956 30.8177 79.7518 30.0039C79.9146 29.1901 79.996 28.2135 79.996 27.0742C79.996 25.9349 79.9146 24.9583 79.7518 24.1445C79.5956 23.3307 79.3579 22.6829 79.0389 22.2012C78.7264 21.7194 78.3586 21.3711 77.9354 21.1562C77.5122 20.9349 77.0142 20.8242 76.4413 20.8242ZM90.0253 15.9512C89.4198 15.3392 89.1171 14.6003 89.1171 13.7344C89.1171 12.8685 89.4198 12.1328 90.0253 11.5273C90.6372 10.9154 91.3762 10.6094 92.2421 10.6094C93.1079 10.6094 93.8436 10.9154 94.4491 11.5273C95.0611 12.1328 95.3671 12.8685 95.3671 13.7344C95.3671 14.6003 95.0611 15.3392 94.4491 15.9512C93.8436 16.5566 93.1079 16.8594 92.2421 16.8594C91.3762 16.8594 90.6372 16.5566 90.0253 15.9512ZM87.5546 18.0312H94.9764V32.875H96.9296V36H87.5546V32.875H89.5077V21.1562H87.5546V18.0312ZM111.383 17.6406C112.294 17.6406 113.092 17.7643 113.775 18.0117C114.459 18.2591 115.019 18.6009 115.455 19.0371C115.891 19.4668 116.243 20.0169 116.51 20.6875C116.783 21.3516 116.972 22.0677 117.076 22.8359C117.187 23.5977 117.242 24.4701 117.242 25.4531V32.875H119.195V36H109.82V32.875H111.773V25.0625C111.773 24.0339 111.679 23.2331 111.49 22.6602C111.308 22.0872 111.041 21.6934 110.689 21.4785C110.344 21.2637 109.872 21.1562 109.273 21.1562C108.726 21.1562 108.167 21.3874 107.594 21.8496C107.021 22.3118 106.477 22.9564 105.963 23.7832L105.914 32.875H107.867V36H98.4921V32.875H100.445V21.1562H98.4921V18.0312H104.557L105.924 20.6777C106.165 20.2415 106.441 19.8509 106.754 19.5059C107.073 19.1543 107.45 18.8353 107.887 18.5488C108.329 18.2559 108.847 18.0312 109.439 17.875C110.032 17.7188 110.68 17.6406 111.383 17.6406Z" fill="black"/>
<path d="M80.2264 45.6406C81.1379 45.6406 81.9354 45.7643 82.619 46.0117C83.3026 46.2591 83.8625 46.6009 84.2987 47.0371C84.7349 47.4668 85.0865 48.0169 85.3534 48.6875C85.6268 49.3516 85.8156 50.0677 85.9198 50.8359C86.0305 51.5977 86.0858 52.4701 86.0858 53.4531V60.875H88.0389V64H78.6639V60.875H80.6171V53.0625C80.6171 52.0339 80.5226 51.2331 80.3338 50.6602C80.1516 50.0872 79.8846 49.6934 79.5331 49.4785C79.188 49.2637 78.716 49.1562 78.1171 49.1562C77.5572 49.1562 76.981 49.4004 76.3885 49.8887C75.7961 50.377 75.2362 51.0605 74.7088 51.9395C74.7414 52.4082 74.7577 52.9128 74.7577 53.4531V60.875H76.7108V64H67.3358V60.875H69.2889V53.0625C69.2889 52.0339 69.1945 51.2331 69.0057 50.6602C68.8234 50.0872 68.5565 49.6934 68.2049 49.4785C67.8599 49.2637 67.3879 49.1562 66.7889 49.1562C66.2421 49.1562 65.6822 49.3874 65.1092 49.8496C64.5363 50.3118 63.9927 50.9564 63.4784 51.7832L63.4296 60.875H65.3827V64H56.0077V60.875H57.9608V49.1562H56.0077V46.0312H62.0721L63.4393 48.6777C63.6802 48.2415 63.9569 47.8509 64.2694 47.5059C64.5884 47.1543 64.966 46.8353 65.4022 46.5488C65.8449 46.2559 66.3625 46.0312 66.9549 45.875C67.5474 45.7188 68.1952 45.6406 68.8983 45.6406C69.6861 45.6406 70.3892 45.7318 71.0077 45.9141C71.6262 46.0898 72.1503 46.3535 72.5799 46.7051C73.0161 47.0501 73.3775 47.4635 73.6639 47.9453C73.9504 48.4206 74.1782 48.974 74.3475 49.6055C74.5103 49.1823 74.6991 48.7852 74.9139 48.4141C75.1353 48.043 75.4152 47.6849 75.7538 47.3398C76.0923 46.9883 76.4667 46.6921 76.8768 46.4512C77.2935 46.2038 77.7883 46.0085 78.3612 45.8652C78.9341 45.7155 79.5559 45.6406 80.2264 45.6406ZM105.617 52.2324V60.875H107.57V64H101.486L100.617 61.9688C99.953 62.9193 99.1815 63.5703 98.3026 63.9219C97.4302 64.2734 96.2095 64.4492 94.6405 64.4492C93.8267 64.4492 93.0682 64.306 92.3651 64.0195C91.6685 63.7396 91.0728 63.3555 90.578 62.8672C90.0897 62.3789 89.7056 61.793 89.4256 61.1094C89.1522 60.4258 89.0155 59.6934 89.0155 58.9121C89.0155 57.5645 89.5428 56.4479 90.5975 55.5625C91.6522 54.6706 92.9999 54.2246 94.6405 54.2246C95.9621 54.2246 97.0559 54.3516 97.9217 54.6055C98.7876 54.8529 99.5298 55.25 100.148 55.7969V51.6562C100.148 51.0703 100.067 50.582 99.9042 50.1914C99.7479 49.7943 99.5103 49.4915 99.1913 49.2832C98.8723 49.0684 98.5142 48.9186 98.1171 48.834C97.7199 48.7493 97.2447 48.707 96.6913 48.707C96.2486 48.707 95.8482 48.8014 95.4901 48.9902C95.6919 49.4134 95.7928 49.8594 95.7928 50.3281C95.7928 51.194 95.4868 51.9329 94.8749 52.5449C94.2694 53.1504 93.5337 53.4531 92.6678 53.4531C91.8019 53.4531 91.063 53.1504 90.451 52.5449C89.8456 51.9329 89.5428 51.194 89.5428 50.3281C89.5428 49.8854 89.6275 49.4688 89.7967 49.0781C89.9725 48.6875 90.2134 48.3457 90.5194 48.0527C90.7798 47.7793 91.05 47.5352 91.3299 47.3203C91.6099 47.099 91.9615 46.8809 92.3846 46.666C92.8143 46.4447 93.2798 46.2624 93.7811 46.1191C94.2824 45.9759 94.8814 45.862 95.578 45.7773C96.2811 45.6862 97.0493 45.6406 97.8827 45.6406C98.9634 45.6406 99.979 45.8001 100.93 46.1191C101.88 46.4382 102.7 46.8809 103.39 47.4473C104.081 48.0137 104.624 48.7103 105.021 49.5371C105.418 50.3639 105.617 51.2624 105.617 52.2324ZM100.148 59.6641V58.3164C99.7447 57.9323 99.2889 57.61 98.7811 57.3496C98.2798 57.0827 97.8143 56.9492 97.3846 56.9492C96.4601 56.9492 95.8091 57.1055 95.4315 57.418C95.0539 57.724 94.8651 58.222 94.8651 58.9121C94.8651 59.7389 95.0279 60.3477 95.3534 60.7383C95.6789 61.1289 96.2844 61.3242 97.1698 61.3242C97.6711 61.3242 98.1919 61.1647 98.7323 60.8457C99.2792 60.5202 99.7512 60.1263 100.148 59.6641ZM113.625 42.125H115.578V46.0312H121.047V49.1562H115.578V59.3125C115.578 59.7552 115.702 60.1263 115.949 60.4258C116.203 60.7253 116.6 60.875 117.14 60.875C117.746 60.875 118.26 60.6764 118.683 60.2793C119.107 59.8757 119.374 59.293 119.484 58.5312L121.828 58.9219C121.73 59.6836 121.542 60.39 121.262 61.041C120.988 61.6855 120.63 62.2617 120.187 62.7695C119.745 63.2708 119.195 63.668 118.537 63.9609C117.886 64.2474 117.16 64.3906 116.359 64.3906C114.413 64.3906 112.883 63.9382 111.769 63.0332C110.663 62.1217 110.109 60.8815 110.109 59.3125V49.1562H108.156V46.0312H108.547C109.549 46.0312 110.435 45.7448 111.203 45.1719C111.971 44.599 112.779 43.5833 113.625 42.125ZM129.426 56.1875C129.484 56.9427 129.608 57.6165 129.797 58.209C129.986 58.8014 130.213 59.2865 130.48 59.6641C130.754 60.0417 131.07 60.3542 131.428 60.6016C131.786 60.8424 132.154 61.015 132.531 61.1191C132.909 61.2168 133.312 61.2656 133.742 61.2656C135.116 61.2656 136.187 61.002 136.955 60.4746C137.73 59.9408 138.348 59.1204 138.81 58.0137L141.408 58.9121C141.174 59.5436 140.874 60.1393 140.51 60.6992C140.152 61.2526 139.719 61.7637 139.211 62.2324C138.703 62.7012 138.137 63.1048 137.512 63.4434C136.893 63.7754 136.193 64.0358 135.412 64.2246C134.631 64.4134 133.807 64.5078 132.941 64.5078C131.659 64.5078 130.445 64.2832 129.299 63.834C128.159 63.3848 127.167 62.7598 126.32 61.959C125.48 61.1517 124.813 60.1589 124.318 58.9805C123.83 57.8021 123.586 56.5195 123.586 55.1328C123.586 53.7461 123.83 52.457 124.318 51.2656C124.813 50.0742 125.48 49.0716 126.32 48.2578C127.167 47.4375 128.159 46.7962 129.299 46.334C130.445 45.8717 131.659 45.6406 132.941 45.6406C134.224 45.6406 135.435 45.8717 136.574 46.334C137.72 46.7962 138.713 47.4375 139.553 48.2578C140.399 49.0716 141.066 50.0742 141.555 51.2656C142.049 52.457 142.297 53.7461 142.297 55.1328L142.053 56.1875H129.426ZM129.494 53.0625H136.389C136.219 51.5651 135.845 50.4746 135.265 49.791C134.686 49.1074 133.918 48.7656 132.961 48.7656C132.486 48.7656 132.059 48.8438 131.682 49C131.304 49.1497 130.965 49.3939 130.666 49.7324C130.366 50.0645 130.116 50.5104 129.914 51.0703C129.719 51.6237 129.579 52.2878 129.494 53.0625Z" fill="black"/>
<path d="M33.9937 41.4371C30.668 41.646 27.9046 43.6221 25.8722 46.1526C24.1692 48.2653 22.1287 51.3581 22.916 54.234C23.655 56.9411 26.4908 57.3588 28.8605 56.7162C31.9815 55.8003 34.6769 53.808 36.468 51.093C36.468 51.0528 36.468 51.0126 36.4117 51.0448C34.6102 52.9573 32.3639 54.395 29.8727 55.2301C28.4107 55.696 26.8442 55.9932 25.5669 54.9971C24.0165 53.7841 24.4905 51.9284 25.2938 50.3138C27.4226 46.008 32.7084 41.1399 37.8095 43.9756C42.5089 46.5944 40.9344 53.9126 38.7655 57.632C36.3555 61.7932 32.5478 64.0585 28.3223 66.1311C27.993 66.2918 28.1376 66.9344 28.5151 66.8541C34.6685 66.107 39.8901 60.54 41.6012 54.8043C43.3122 49.0686 41.4084 40.9632 33.9937 41.4371Z" fill="black" stroke="black" stroke-width="2.45481" stroke-miterlimit="10"/>
<path d="M30.2826 65.3122C24.5549 67.5053 18.4738 69.0798 12.6096 66.2762C9.92823 64.9507 7.63605 62.9531 5.95649 60.4781C4.27692 58.0031 3.2673 55.1352 3.026 52.1539C2.8332 49.3021 3.54013 45.9442 5.91795 44.1207C9.13122 41.6143 13.7423 43.6788 16.3611 46.1772C18.771 48.4747 20.1046 52.1699 18.2248 55.2386C16.0799 58.725 12.1758 57.5441 10.4165 54.5317C10.348 54.4185 10.2445 54.3306 10.1216 54.2813C9.99876 54.232 9.86321 54.224 9.7354 54.2584C9.60759 54.2928 9.49445 54.3679 9.413 54.4723C9.33156 54.5766 9.28623 54.7046 9.28385 54.837C9.39632 57.1746 11.6215 58.6286 13.8065 58.8536C14.9331 58.9737 16.0705 58.7663 17.0822 58.2562C18.0938 57.7461 18.9368 56.9549 19.5101 55.9777C22.9001 50.4508 18.1605 44.2813 12.9791 42.2088C6.67305 39.6864 1.90938 44.2251 1.45952 50.4589C1.00966 56.6926 4.48803 63.0228 9.59714 66.5252C15.5096 70.5418 24.6272 70.0518 31.1261 66.1879C30.9013 65.8465 30.6153 65.5496 30.2826 65.3122Z" fill="black" stroke="black" stroke-width="2.45481" stroke-miterlimit="10"/>
<path d="M11.477 51.6401C10.9986 51.6567 10.5309 51.7862 10.1121 52.018C9.6933 52.2497 9.3352 52.5772 9.06703 52.9737C8.46455 53.9698 8.95458 55.5925 9.98283 56.7814C10.4006 57.2634 11.1075 55.8817 10.8343 55.3435C10.4327 54.5402 10.031 53.2066 11.6377 52.2587C11.6966 52.22 11.742 52.1638 11.7673 52.098C11.7927 52.0322 11.7968 51.9601 11.7791 51.8919C11.7613 51.8236 11.7227 51.7626 11.6685 51.7175C11.6143 51.6723 11.5473 51.6453 11.477 51.6401Z" fill="black" stroke="black" stroke-width="2.45481" stroke-miterlimit="10"/>
<path d="M11.1795 51.6481C10.4482 51.7336 9.70726 51.6313 9.02657 51.3508C8.76141 51.256 8.52709 51.0907 8.34877 50.8728C8.17044 50.6548 8.05483 50.3924 8.01438 50.1138C7.99994 50.0658 7.9733 50.0224 7.93706 49.9878C7.90081 49.9533 7.8562 49.9287 7.80762 49.9166C7.75903 49.9045 7.70813 49.9051 7.65989 49.9186C7.61164 49.932 7.56769 49.9577 7.53238 49.9932C6.9299 50.5234 7.37174 51.5999 7.80553 52.1702C8.43212 52.9736 9.71742 53.552 10.6252 52.9736C11.0911 52.7085 11.6855 51.5918 11.1795 51.6481Z" fill="black" stroke="black" stroke-width="2.45481" stroke-miterlimit="10"/>
<path d="M26.3757 56.7594C24.8918 54.6836 22.178 53.3221 19.7528 53.8652C19.1208 54.0066 19.2857 55.0333 19.8971 55.0482C21.8895 55.1077 23.6002 55.4797 25.1597 56.9379C26.7193 58.3961 28.1483 61.1192 26.678 63.2023C26.6368 63.2544 26.7261 63.3288 26.7742 63.2767C28.3819 61.4167 27.6879 58.597 26.3757 56.7594Z" fill="black" stroke="black" stroke-width="2.45481" stroke-miterlimit="10"/>
<path d="M17.309 36.2003C16.0377 35.6613 14.6605 35.4181 13.2814 35.4891C11.9023 35.5601 10.5574 35.9434 9.34812 36.61C7.39606 37.7749 5.37974 40.0804 5.86976 42.4984C5.90712 42.6191 5.97841 42.7265 6.07511 42.8078C6.1718 42.8891 6.28982 42.9408 6.41513 42.9569C6.54044 42.973 6.66773 42.9527 6.78183 42.8985C6.89593 42.8442 6.99203 42.7583 7.05866 42.651C7.97444 40.6828 8.37612 38.9959 10.4406 37.8311C12.8506 36.4574 15.7586 36.7707 18.1766 37.9435C20.3671 39.0267 22.1953 40.7237 23.4383 42.8277C24.7477 45.0529 24.7879 47.0853 24.8522 49.5676C24.8522 49.7041 25.061 49.7764 25.1253 49.6398C27.7522 44.2978 21.8799 37.9596 17.309 36.2003Z" fill="black" stroke="black" stroke-width="2.45481" stroke-miterlimit="10"/>
<path d="M31.2144 23.1776C30.6403 20.1075 29.7962 17.0941 28.692 14.1724C27.7842 11.8267 26.748 9.03114 24.9244 7.304C21.7112 4.22729 17.6946 7.03089 17.3572 11.184C17.1081 14.2768 18.2569 17.6106 18.9156 20.607C19.7189 24.2701 20.8034 29.0338 21.3818 32.7451C21.4085 32.844 21.467 32.9314 21.5483 32.9937C21.6296 33.056 21.7292 33.0898 21.8316 33.0898C21.9341 33.0898 22.0337 33.056 22.115 32.9937C22.1963 32.9314 22.2548 32.844 22.2815 32.7451C22.7153 30.6806 22.0566 27.4513 21.671 25.4028C21.1568 22.6715 20.5704 19.9563 19.976 17.2411C19.3815 14.5259 17.9516 10.445 20.1607 8.27604C23.0607 5.41622 25.4626 10.0594 26.5873 12.4613C30.885 21.8361 30.8368 32.0221 31.9535 42.1359C32.0338 42.8027 32.9576 42.8509 32.9576 42.1359C33.0049 35.7744 32.421 29.4238 31.2144 23.1776Z" fill="black" stroke="black" stroke-width="2.45481" stroke-miterlimit="10"/>
<path d="M22.1289 31.7418C22.092 31.6707 22.0292 31.6165 21.9536 31.5903C21.878 31.564 21.7952 31.5677 21.7222 31.6006C21.6492 31.6335 21.5916 31.6931 21.5611 31.7672C21.5307 31.8412 21.5298 31.9241 21.5585 31.9988C20.6267 34.8185 19.012 30.9626 18.8513 30.344C18.6907 29.7254 15.3489 20.4471 13.7744 17.2981C12.0553 13.8518 7.97441 8.51784 3.82928 10.6145C-0.564867 12.8477 1.5559 19.1618 3.30713 22.4956C6.46417 28.5124 8.12703 32.3362 10.1755 36.9553C10.6706 36.6881 11.22 36.5371 11.7821 36.5135C9.99311 31.9782 7.93841 27.5523 5.62871 23.2587C4.32733 20.8488 2.41544 17.0169 3.45172 14.117C4.488 11.217 7.46832 12.4621 9.07495 13.9081C10.2701 15.0281 11.2957 16.3162 12.1195 17.7319C14.9231 22.367 15.7425 28.0706 18.4095 32.7058C19.0441 33.8063 20.3214 34.9148 21.5746 34.1758C21.7739 34.0552 21.9469 33.8957 22.0833 33.7069C22.2197 33.518 22.3166 33.3036 22.3683 33.0764C22.4201 32.8493 22.4255 32.6141 22.3844 32.3848C22.3432 32.1554 22.2563 31.9368 22.1289 31.7418Z" fill="black" stroke="black" stroke-width="2.45481" stroke-miterlimit="10"/>
</svg>
