<svg width="40" height="40" viewBox="0 0 40 40" fill="none" xmlns="http://www.w3.org/2000/svg">
<g clip-path="url(#clip0_2_11073)">
<mask id="mask0_2_11073" style="mask-type:luminance" maskUnits="userSpaceOnUse" x="0" y="0" width="40" height="40">
<path d="M40 0H0V40H40V0Z" fill="white"/>
</mask>
<g mask="url(#mask0_2_11073)">
<path d="M20 40C31.0457 40 40 31.0457 40 20C40 8.9543 31.0457 0 20 0C8.9543 0 0 8.9543 0 20C0 31.0457 8.9543 40 20 40Z" fill="#F0F0F0"/>
<path d="M19.1321 19.9999H40.0018C40.0018 18.1947 39.7611 16.446 39.3127 14.7825H19.1321V19.9999Z" fill="#E12F4F"/>
<path d="M19.1321 9.56509H37.0662C35.8419 7.56727 34.2766 5.80141 32.4514 4.34766H19.1321V9.56509Z" fill="#E12F4F"/>
<path d="M20.0017 39.9999C24.7087 39.9999 29.035 38.3731 32.4514 35.6521H7.552C10.9684 38.3731 15.2947 39.9999 20.0017 39.9999Z" fill="#E12F4F"/>
<path d="M2.93692 30.4346H37.066C38.0488 28.8308 38.8111 27.0778 39.3125 25.2173H0.69043C1.19176 27.0778 1.95402 28.8308 2.93692 30.4346Z" fill="#E12F4F"/>
<path d="M9.26438 3.12328H11.087L9.39163 4.35492L10.0392 6.34782L8.34398 5.11617L6.64875 6.34782L7.20812 4.62617C5.71547 5.86953 4.40718 7.32625 3.32907 8.94938H3.91305L2.8339 9.73337C2.66578 10.0138 2.50453 10.2987 2.35 10.5879L2.86532 12.1739L1.9039 11.4754C1.66492 11.9817 1.44633 12.4994 1.24984 13.028L1.81758 14.7755H3.91305L2.21773 16.0071L2.86532 18L1.17008 16.7683L0.154609 17.5062C0.0529687 18.3232 0 19.1553 0 20H20C20 8.95437 20 7.65218 20 0C16.0491 0 12.366 1.14609 9.26438 3.12328ZM10.0392 18L8.34398 16.7683L6.64875 18L7.29633 16.0071L5.60102 14.7755H7.69648L8.34398 12.7826L8.99148 14.7755H11.087L9.39163 16.0071L10.0392 18ZM9.39163 10.181L10.0392 12.1739L8.34398 10.9423L6.64875 12.1739L7.29633 10.181L5.60102 8.94938H7.69648L8.34398 6.95648L8.99148 8.94938H11.087L9.39163 10.181ZM17.2132 18L15.5179 16.7683L13.8226 18L14.4702 16.0071L12.7749 14.7755H14.8704L15.5179 12.7826L16.1654 14.7755H18.2608L16.5655 16.0071L17.2132 18ZM16.5655 10.181L17.2132 12.1739L15.5179 10.9423L13.8226 12.1739L14.4702 10.181L12.7749 8.94938H14.8704L15.5179 6.95648L16.1654 8.94938H18.2608L16.5655 10.181ZM16.5655 4.35492L17.2132 6.34782L15.5179 5.11617L13.8226 6.34782L14.4702 4.35492L12.7749 3.12328H14.8704L15.5179 1.13039L16.1654 3.12328H18.2608L16.5655 4.35492Z" fill="#0052B4"/>
</g>
</g>
<defs>
<clipPath id="clip0_2_11073">
<rect width="40" height="40" fill="white"/>
</clipPath>
</defs>
</svg>
