<svg width="40" height="40" viewBox="0 0 40 40" fill="none" xmlns="http://www.w3.org/2000/svg">
<g clip-path="url(#clip0_2_11116)">
<path d="M20 40C31.0457 40 40 31.0457 40 20C40 8.9543 31.0457 0 20 0C8.9543 0 0 8.9543 0 20C0 31.0457 8.9543 40 20 40Z" fill="#F0F0F0"/>
<path d="M4.13411 7.82349C2.56309 9.86747 1.37849 12.2233 0.688721 14.7826H11.0933L4.13411 7.82349Z" fill="#0052B4"/>
<path d="M39.3111 14.7828C38.6214 12.2236 37.4367 9.86771 35.8657 7.82373L28.9067 14.7828H39.3111Z" fill="#0052B4"/>
<path d="M0.688721 25.2175C1.37856 27.7767 2.56317 30.1325 4.13411 32.1765L11.093 25.2175H0.688721Z" fill="#0052B4"/>
<path d="M32.1756 4.13444C30.1317 2.56342 27.7759 1.37881 25.2166 0.688965V11.0934L32.1756 4.13444Z" fill="#0052B4"/>
<path d="M7.82349 35.8655C9.86747 37.4365 12.2233 38.6212 14.7826 39.311V28.9065L7.82349 35.8655Z" fill="#0052B4"/>
<path d="M14.7825 0.688965C12.2233 1.37881 9.8674 2.56342 7.82349 4.13435L14.7825 11.0933V0.688965Z" fill="#0052B4"/>
<path d="M25.2166 39.311C27.7757 38.6212 30.1317 37.4365 32.1756 35.8655L25.2166 28.9065V39.311Z" fill="#0052B4"/>
<path d="M28.9067 25.2175L35.8657 32.1765C37.4367 30.1327 38.6214 27.7767 39.3111 25.2175H28.9067Z" fill="#0052B4"/>
<path d="M39.8307 17.3913H22.6088V0.169297C21.7548 0.058125 20.8842 0 20 0C19.1157 0 18.2452 0.058125 17.3913 0.169297V17.3912H0.169297C0.058125 18.2452 0 19.1158 0 20C0 20.8843 0.058125 21.7548 0.169297 22.6087H17.3912V39.8307C18.2452 39.9418 19.1157 40 20 40C20.8842 40 21.7548 39.942 22.6087 39.8307V22.6088H39.8307C39.9418 21.7548 40 20.8843 40 20C40 19.1158 39.9418 18.2452 39.8307 17.3913Z" fill="#E12F4F"/>
<path d="M25.2185 25.2175L34.1432 34.1421C34.5537 33.7318 34.9452 33.3028 35.3188 32.8581L27.678 25.2173L25.2185 25.2175Z" fill="#E12F4F"/>
<path d="M14.7834 25.2175L5.85864 34.1422C6.26894 34.5525 6.69793 34.9442 7.14263 35.3177L14.7834 27.6769V25.2175Z" fill="#E12F4F"/>
<path d="M14.7842 14.7828L5.85947 5.85791C5.449 6.26823 5.05744 6.69721 4.68384 7.14189L12.3247 14.7828L14.7842 14.7828Z" fill="#E12F4F"/>
<path d="M25.2185 14.7828L34.1433 5.85792C33.733 5.44744 33.304 5.05589 32.8593 4.68237L25.2185 12.3232V14.7828Z" fill="#E12F4F"/>
</g>
<defs>
<clipPath id="clip0_2_11116">
<rect width="40" height="40" fill="white"/>
</clipPath>
</defs>
</svg>
