<svg width="40" height="40" viewBox="0 0 40 40" fill="none" xmlns="http://www.w3.org/2000/svg">
<mask id="mask0_2_11104" style="mask-type:luminance" maskUnits="userSpaceOnUse" x="1" y="1" width="39" height="39">
<path d="M39.8407 1.09717H1.44067V39.4972H39.8407V1.09717Z" fill="white"/>
</mask>
<g mask="url(#mask0_2_11104)">
<path d="M20.6407 39.4971C31.2445 39.4971 39.8407 30.901 39.8407 20.2971C39.8407 9.6933 31.2445 1.09717 20.6407 1.09717C10.0368 1.09717 1.44067 9.6933 1.44067 20.2971C1.44067 30.901 10.0368 39.4971 20.6407 39.4971Z" fill="#F0F0F0"/>
<path d="M20.6416 28.6451C25.2518 28.6451 28.9892 24.9076 28.9892 20.2972C28.9892 15.6869 25.2518 11.9495 20.6416 11.9495C16.0312 11.9495 12.2937 15.6869 12.2937 20.2972C12.2937 24.9076 16.0312 28.6451 20.6416 28.6451Z" fill="#E12F4F"/>
</g>
</svg>
