<svg width="40" height="40" viewBox="0 0 40 40" fill="none" xmlns="http://www.w3.org/2000/svg">
<g clip-path="url(#clip0_2_11089)">
<path d="M20 40C31.0457 40 40 31.0457 40 20C40 8.9543 31.0457 0 20 0C8.9543 0 0 8.9543 0 20C0 31.0457 8.9543 40 20 40Z" fill="#0052B4"/>
<path d="M20.0009 7.82617L20.6486 9.81905H22.7439L21.0486 11.0507L21.6962 13.0436L20.0009 11.8119L18.3057 13.0436L18.9532 11.0507L17.2581 9.81905H19.3534L20.0009 7.82617Z" fill="#FFDA44"/>
<path d="M11.392 11.3919L13.2592 12.3431L14.7409 10.8616L14.413 12.9311L16.2801 13.8824L14.2105 14.2102L13.8827 16.2799L12.9313 14.4128L10.8618 14.7407L12.3435 13.2591L11.392 11.3919Z" fill="#FFDA44"/>
<path d="M7.82715 20.0001L9.82003 19.3526V17.2571L11.0516 18.9524L13.0446 18.3049L11.8128 20.0001L13.0446 21.6952L11.0516 21.0477L9.82003 22.7431V20.6476L7.82715 20.0001Z" fill="#FFDA44"/>
<path d="M11.392 28.6082L12.3434 26.741L10.8618 25.2594L12.9314 25.5874L13.8826 23.7202L14.2105 25.7899L16.28 26.1177L14.4132 27.0691L14.7409 29.1385L13.2592 27.6569L11.392 28.6082Z" fill="#FFDA44"/>
<path d="M20.0009 32.1741L19.3532 30.1811H17.2581L18.9532 28.9496L18.3057 26.9568L20.0009 28.1883L21.6962 26.9568L21.0486 28.9496L22.7439 30.1811H20.6484L20.0009 32.1741Z" fill="#FFDA44"/>
<path d="M28.609 28.6082L26.7419 27.6569L25.2602 29.1385L25.588 27.0689L23.7212 26.1177L25.7907 25.7899L26.1185 23.7202L27.0697 25.5874L29.1392 25.2594L27.6577 26.7412L28.609 28.6082Z" fill="#FFDA44"/>
<path d="M32.1746 20.0001L30.1818 20.6476V22.7431L28.9501 21.0477L26.9573 21.6952L28.1889 20.0001L26.9573 18.3049L28.9501 18.9524L30.1818 17.2571V19.3526L32.1746 20.0001Z" fill="#FFDA44"/>
<path d="M28.609 11.3918L27.6577 13.259L29.1394 14.7406L27.0697 14.4127L26.1185 16.2798L25.7907 14.2102L23.7212 13.8823L25.588 12.931L25.2602 10.8616L26.742 12.3431L28.609 11.3918Z" fill="#FFDA44"/>
</g>
<defs>
<clipPath id="clip0_2_11089">
<rect width="40" height="40" fill="white"/>
</clipPath>
</defs>
</svg>
